<svg width="1536" height="1536" viewBox="0 0 1536 1536" xmlns="http://www.w3.org/2000/svg">
<defs>
  <style>
    #Flash {
      fill: #FFB200;
    }
    #Sun {
      fill: #FFB200;
    }
    #Sun-fill {
			fill: #FFB200;
			fill-opacity:0.5;
		}
	#Moon {
		 fill: #626262;
		}
	#Moon-fill {
			fill: #626262;
			fill-opacity:0.5;
		}
	#Cloud {
			fill: #9B9B9B;
		}
    #Cloud-fill {
      fill: #CFCFCF;
      fill-opacity:0.5;
    }
	#Cloud-fill-light {
			fill: #F9FCFE;
		}
	#Rain {
			fill: #008FE9;
		}
	#Snow{
			fill: #9B9B9B;
		}
    #Mist{
			fill: #9B9B9B;
		}
  </style>
</defs>
  <g id="Snow">
  	<path d="M1032,454L1032,454c-9.5,0-18.7,3.8-25.5,10.5c-6.7,6.7-10.5,15.9-10.5,25.5s3.8,18.7,10.5,25.5
  		c6.7,6.7,15.9,10.5,25.5,10.5l0,0c9.5,0,18.7-3.8,25.5-10.5c6.7-6.7,10.5-15.9,10.5-25.5s-3.8-18.7-10.5-25.5
  		C1050.7,457.8,1041.5,454,1032,454L1032,454z"/>
  	<path d="M1104,310L1104,310c-9.5,0-18.7,3.8-25.5,10.5c-6.7,6.7-10.5,15.9-10.5,25.5s3.8,18.7,10.5,25.5
  		c6.7,6.7,15.9,10.5,25.5,10.5l0,0c9.5,0,18.7-3.8,25.5-10.5c6.7-6.7,10.5-15.9,10.5-25.5s-3.8-18.7-10.5-25.5
  		C1122.7,313.8,1113.5,310,1104,310L1104,310z"/>
  	<path d="M1104,598L1104,598c-9.5,0-18.7,3.8-25.5,10.5c-6.7,6.7-10.5,15.9-10.5,25.5s3.8,18.7,10.5,25.5
  		c6.7,6.7,15.9,10.5,25.5,10.5l0,0c9.5,0,18.7-3.8,25.5-10.5c6.7-6.7,10.5-15.9,10.5-25.5s-3.8-18.7-10.5-25.5
  		C1122.7,601.8,1113.5,598,1104,598L1104,598z"/>
  	<path d="M1176,454L1176,454c-9.5,0-18.7,3.8-25.5,10.5c-6.7,6.7-10.5,15.9-10.5,25.5s3.8,18.7,10.5,25.5
  		c6.7,6.7,15.9,10.5,25.5,10.5l0,0c9.5,0,18.7-3.8,25.5-10.5c6.7-6.7,10.5-15.9,10.5-25.5s-3.8-18.7-10.5-25.5
  		C1194.7,457.8,1185.5,454,1176,454L1176,454z"/>
  	<path d="M1248,310L1248,310c-9.5,0-18.7,3.8-25.5,10.5c-6.7,6.7-10.5,15.9-10.5,25.5s3.8,18.7,10.5,25.5
  		c6.7,6.7,15.9,10.5,25.5,10.5l0,0c9.5,0,18.7-3.8,25.5-10.5c6.7-6.7,10.5-15.9,10.5-25.5s-3.8-18.7-10.5-25.5
  		C1266.7,313.8,1257.5,310,1248,310L1248,310z"/>
  	<path d="M1248,598L1248,598c-9.5,0-18.7,3.8-25.5,10.5c-6.7,6.7-10.5,15.9-10.5,25.5s3.8,18.7,10.5,25.5
  		c6.7,6.7,15.9,10.5,25.5,10.5l0,0c9.5,0,18.7-3.8,25.5-10.5c6.7-6.7,10.5-15.9,10.5-25.5s-3.8-18.7-10.5-25.5
  		C1266.7,601.8,1257.5,598,1248,598L1248,598z"/>
  	<path d="M1320,454L1320,454c-9.5,0-18.7,3.8-25.5,10.5c-6.7,6.7-10.5,15.9-10.5,25.5s3.8,18.7,10.5,25.5
  		c6.7,6.7,15.9,10.5,25.5,10.5l0,0c9.5,0,18.7-3.8,25.5-10.5c6.7-6.7,10.5-15.9,10.5-25.5s-3.8-18.7-10.5-25.5
  		C1338.7,457.8,1329.5,454,1320,454L1320,454z"/>
  	<path d="M888,914L888,914c-9.5,0-18.7,3.8-25.5,10.5c-6.7,6.7-10.5,15.9-10.5,25.5s3.8,18.7,10.5,25.5c6.7,6.7,15.9,10.5,25.5,10.5
  		l0,0c9.5,0,18.7-3.8,25.5-10.5c6.7-6.7,10.5-15.9,10.5-25.5s-3.8-18.7-10.5-25.5C906.7,917.8,897.5,914,888,914L888,914z"/>
  	<path d="M960,770L960,770c-9.5,0-18.7,3.8-25.5,10.5c-6.7,6.7-10.5,15.9-10.5,25.5s3.8,18.7,10.5,25.5c6.7,6.7,15.9,10.5,25.5,10.5
  		l0,0c9.5,0,18.7-3.8,25.5-10.5c6.7-6.7,10.5-15.9,10.5-25.5s-3.8-18.7-10.5-25.5C978.7,773.8,969.5,770,960,770L960,770z"/>
  	<path d="M960,1058L960,1058c-9.5,0-18.7,3.8-25.5,10.5c-6.7,6.7-10.5,15.9-10.5,25.5s3.8,18.7,10.5,25.5
  		c6.7,6.7,15.9,10.5,25.5,10.5l0,0c9.5,0,18.7-3.8,25.5-10.5c6.7-6.7,10.5-15.9,10.5-25.5s-3.8-18.7-10.5-25.5
  		C978.7,1061.8,969.5,1058,960,1058L960,1058z"/>
  	<path d="M1032,914L1032,914c-9.5,0-18.7,3.8-25.5,10.5c-6.7,6.7-10.5,15.9-10.5,25.5s3.8,18.7,10.5,25.5
  		c6.7,6.7,15.9,10.5,25.5,10.5l0,0c9.5,0,18.7-3.8,25.5-10.5c6.7-6.7,10.5-15.9,10.5-25.5s-3.8-18.7-10.5-25.5
  		C1050.7,917.8,1041.5,914,1032,914L1032,914z"/>
  	<path d="M1104,770L1104,770c-9.5,0-18.7,3.8-25.5,10.5c-6.7,6.7-10.5,15.9-10.5,25.5s3.8,18.7,10.5,25.5
  		c6.7,6.7,15.9,10.5,25.5,10.5l0,0c9.5,0,18.7-3.8,25.5-10.5c6.7-6.7,10.5-15.9,10.5-25.5s-3.8-18.7-10.5-25.5
  		C1122.7,773.8,1113.5,770,1104,770L1104,770z"/>
  	<path d="M1104,1058L1104,1058c-9.5,0-18.7,3.8-25.5,10.5c-6.7,6.7-10.5,15.9-10.5,25.5s3.8,18.7,10.5,25.5
  		c6.7,6.7,15.9,10.5,25.5,10.5l0,0c9.5,0,18.7-3.8,25.5-10.5c6.7-6.7,10.5-15.9,10.5-25.5s-3.8-18.7-10.5-25.5
  		C1122.7,1061.8,1113.5,1058,1104,1058L1104,1058z"/>
  	<path d="M1176,914L1176,914c-9.5,0-18.7,3.8-25.5,10.5c-6.7,6.7-10.5,15.9-10.5,25.5s3.8,18.7,10.5,25.5
  		c6.7,6.7,15.9,10.5,25.5,10.5l0,0c9.5,0,18.7-3.8,25.5-10.5c6.7-6.7,10.5-15.9,10.5-25.5s-3.8-18.7-10.5-25.5
  		C1194.7,917.8,1185.5,914,1176,914L1176,914z"/>
    </g>
    <g id="Snow">
  	<path d="M681.6,248c61.5,0,119.4,24,162.9,67.7C888,359.3,912,417.3,912,479s-24,119.7-67.5,163.3C801,686,743.2,710,681.6,710
  		H235.9c-19.8,0-35.9-16.1-35.9-36s16.1-36,35.9-36h445.7c87.4,0,158.6-71.3,158.6-159s-71.1-159-158.6-159
  		c-47.8,0-92.6,21.4-122.9,58.6c-12.5,15.4-35.1,17.7-50.5,5.1c-15.4-12.6-17.7-35.2-5.1-50.6C547.1,279,612.1,248,681.6,248z"/>
  	<path d="M497.9,932H236c-19.9,0-36,16.1-36,36s16.1,36,36,36h261.9c43.1,0,78.1,34.9,78.1,77.9c0,43.1-35,78.1-78.1,78.1
  		c-23.7,0-45.9-10.5-60.8-28.7c-12.6-15.4-35.2-17.8-50.7-5.2c-15.4,12.6-17.7,35.3-5.2,50.7c28.6,35.1,71.1,55.2,116.6,55.2
  		c82.8,0,150.1-67.2,150.1-150C648,999.2,580.7,932,497.9,932z"/>
  	<path d="M308,788h432c19.9,0,36,16.1,36,36s-16.1,36-36,36H308c-19.9,0-36-16.1-36-36S288.1,788,308,788z"/>
  </g>
</svg>