<svg width="1536" height="1536" viewBox="0 0 1536 1536" xmlns="http://www.w3.org/2000/svg">
<defs>
  <style>
    #Flash {
      fill: #FFB200;
    }
    #Sun {
      fill: #FFB200;
    }
    #Sun-fill {
			fill: #FFB200;
			fill-opacity:0.5;
		}
	#Moon {
		 fill: #626262;
		}
	#Moon-fill {
			fill: #626262;
			fill-opacity:0.5;
		}
	#Cloud {
			fill: #9B9B9B;
		}
    #Cloud-fill {
      fill: #CFCFCF;
      fill-opacity:0.5;
    }
	#Cloud-fill-light {
			fill: #F9FCFE;
		}
	#Rain {
			fill: #008FE9;
		}
	#Snow{
			fill: #9B9B9B;
		}
    #Mist{
			fill: #9B9B9B;
		}
  </style>
</defs>
  <g id="Cloud-fill">
  	<path class="st1" d="M456,1090c-45.5,0-88.1-17.7-120.2-49.8c-32.1-32-49.8-74.7-49.8-120.2s17.7-88.1,49.8-120.2
  		c32-32.1,74.7-49.8,120.2-49.8h3.2c23.9,0.4,47.3,5.9,68.7,15.9c-4.7-16-7.7-32.3-9.1-49h-1.5l0.6-27.4
  		c1.7-65.5,28.4-126.7,75.2-172.4c47.1-45.8,109.1-71,174.8-71c3.6,0,7.2,0.1,10.7,0.2h0.2c61.4,2.6,119.5,27.8,163.8,70.8
  		c46.9,45.9,73.7,107.1,75.2,172.4l0.4,17l-7.1,2.3c-36.5,11.9-69.5,33.2-95.5,61.8c-2.3,2.5-4.1,5.4-5.2,8.6v0.1
  		c-3.4,9.4-1,20,6.1,27.1c4.9,4.9,11.4,7.6,18.4,7.6c7.4,0,14.2-3,19.2-8.5c3.1-3.4,6.4-6.7,8.7-8.9c5-4.8,10-9,15.2-12.8
  		c28.4-21.4,63.8-33.4,99.4-34h7.5c0.7,0,1.6,0,2.7,0.1c0.3,0,0.7,0,1,0.1c0.1,0,0.3,0,0.4,0l0,0c0.5,0,1.1,0,1.7,0.1h0.3
  		c0.7,0,1.3,0,1.7,0.1h0.3h0.6l0.7,0.1c0.1,0,0.2,0,0.3,0c0.4,0,0.9,0.1,1.6,0.2c0.1,0,0.2,0,0.3,0c0.4,0,1,0.1,1.7,0.2
  		c0.1,0,0.2,0,0.3,0c0.4,0,1,0.1,1.7,0.2h0.2c0.2,0,0.3,0,0.4,0.1c0.9,0,1.7,0.1,2.4,0.3c0.3,0,0.6,0.1,1,0.1c0.7,0.1,1.4,0.2,2,0.3
  		c0.3,0,1.5,0.2,1.8,0.3c0.8,0.1,1.6,0.3,2.6,0.5c0.1,0,1.1,0.2,1.4,0.2c0.7,0.1,1.3,0.2,1.7,0.3l0.3,0.1h0.1c0.5,0.1,1,0.2,1.5,0.3
  		l0.3,0.1c0.7,0.1,1.3,0.2,1.7,0.3l0.3,0.1h0.1c0.5,0.1,1,0.2,1.5,0.3l0.3,0.1l0.6,0.1l0.7,0.2c0.2,0,0.3,0.1,0.5,0.1
  		c0.5,0.1,1,0.2,1.5,0.4l0.2,0.1h0.1l0.2,0.1c0.5,0.1,0.9,0.2,1.4,0.4c0,0,0.5,0.2,0.6,0.2l0.7,0.1l0.8,0.3l0.2,0.1
  		c0.5,0.1,0.9,0.2,1.4,0.4c0.8,0.2,1.4,0.4,2.1,0.7l1.8,0.6c0.2,0.1,0.5,0.2,0.7,0.2c0.4,0.1,0.8,0.2,1.2,0.4l1.8,0.6
  		c0.4,0.1,0.9,0.3,1.4,0.5c0.2,0.1,0.4,0.1,0.5,0.2c0.6,0.2,1.5,0.5,2.4,0.9c0.2,0.1,0.5,0.2,0.7,0.3s0.4,0.1,0.5,0.2
  		c0.5,0.2,1,0.4,1.6,0.6l0.3,0.1c0.9,0.3,1.6,0.6,2.2,0.9l0.2,0.1c0.9,0.3,1.7,0.7,2.6,1.2c0.1,0,0.2,0.1,0.2,0.1
  		c0.3,0.1,0.7,0.3,1,0.4l0.3,0.1l0.3,0.1l0.2,0.1c0.4,0.2,1,0.4,1.7,0.8l1.6,0.8c0.2,0.1,0.4,0.2,0.5,0.2c0.4,0.2,0.8,0.4,1.2,0.6
  		l1.8,0.9c0.4,0.2,0.8,0.4,1.2,0.6c0.2,0.1,0.3,0.2,0.5,0.3c0.5,0.2,1,0.5,1.5,0.8c0.1,0.1,0.2,0.1,0.4,0.2c0.8,0.4,1.4,0.8,2,1.1
  		c0.4,0.2,0.7,0.4,1.1,0.6c0.1,0.1,0.2,0.1,0.4,0.2l0.3,0.2l0.3,0.2c0.1,0.1,0.3,0.2,0.4,0.2c0.4,0.2,0.8,0.4,1.2,0.7l0.2,0.1
  		l0.2,0.1c0.1,0.1,0.3,0.2,0.4,0.2c0.4,0.2,0.8,0.5,1.2,0.7c0.6,0.3,1.2,0.7,1.8,1.2c0.2,0.2,0.6,0.4,0.8,0.5l0.3,0.2l0.3,0.2
  		c0.3,0.2,0.7,0.4,1,0.7l0.1,0.1l0.3,0.2l2.2,1.5c0.4,0.2,0.7,0.5,1.1,0.7l0.2,0.2l0.1,0.1l0.2,0.1c0.6,0.4,1.3,0.9,2.1,1.5
  		c0.2,0.1,0.4,0.3,0.6,0.4l0.2,0.2l0.1,0.1l0.2,0.1c0.5,0.3,0.9,0.6,1.4,1c0.1,0.1,0.3,0.2,0.4,0.3l0.3,0.2l1.9,1.5
  		c0.2,0.1,0.3,0.3,0.5,0.4c0.4,0.3,0.8,0.6,1.2,0.9c0.2,0.1,1.1,0.8,1.3,1.1l2.3,1.9l0.2,0.2c0.1,0.1,0.7,0.6,0.7,0.6
  		c0.4,0.4,0.9,0.8,1.3,1.2c0.2,0.2,0.4,0.3,0.5,0.5c0.6,0.5,1.2,1,1.6,1.4c0.3,0.3,0.7,0.6,1,0.9c0.3,0.2,0.5,0.5,0.8,0.7l0.3,0.2
  		l0.1,0.1c0.3,0.3,0.6,0.5,0.8,0.7c0.6,0.6,1.2,1.1,1.7,1.6c0.4,0.4,0.7,0.7,1.1,1l0.2,0.2l0.2,0.2c15.9,15.9,28.3,34.5,37,55.1
  		c8.5,20.8,12.9,42.7,12.9,65.1c-0.4,46.1-18.3,88.9-50.2,120.8c-32.1,32.1-74.8,49.8-120.2,49.8H456V1090z"/>
  </g>
  <g id="Cloud">
  	<path class="st1" d="M1167.2,704.3c-26.9-10.9-56.3-16.9-87.2-16.9h-0.1c-3.7-148-110.7-270.4-251.6-297.9
  		c-19.5-3.8-39.7-5.8-60.3-5.8c-169.6,0-307.7,135.3-311.9,303.7H456c-128.1,0-232,103.8-232,231.8c0,111.5,78.9,204.7,184,226.8
  		v-74.2c-24.3-7.6-46.6-21-65.1-39.6c-30.3-30.2-46.9-70.3-46.9-113s16.6-82.8,46.9-113c30.2-30.3,70.4-46.9,113.1-46.9h3
  		c16.2,0.3,31.7,3,46.4,7.7c14.6,4.7,28.4,11.5,40.8,20c-10.4-25.1-16.7-52.3-18-80.8h-0.6L528,689c1.6-62.7,27.2-121.5,72.2-165.4
  		c45.2-44,104.8-68.1,167.8-68.1c3.5,0,7,0.1,10.5,0.2c59.1,2.5,114.6,26.5,157.2,67.9c45,44,70.7,102.7,72.2,165.4l0.2,9.5
  		c-38.8,12.6-73,35.1-99.8,64.5c-3.3,3.6-5.7,7.7-7.2,12c-4.6,12.7-1.7,27.5,8.5,37.6c7,7,16.2,10.5,25.4,10.5
  		c9.8,0,19.5-4,26.6-11.8c2.6-2.9,5.4-5.7,8.2-8.4c4.5-4.3,9.2-8.3,14.2-12c26.9-20.2,59.7-31.5,93.6-32h7.4c0.7,0,1.3,0,2,0.1
  		c0.7,0,1.4,0.1,2.1,0.1c0.6,0,1.3,0.1,1.9,0.1c0.7,0,1.4,0.1,2,0.1c0.7,0.1,1.3,0.1,1.9,0.2c0.7,0.1,1.4,0.1,2,0.2
  		c0.7,0.1,1.3,0.1,1.9,0.2c0.7,0.1,1.3,0.2,2,0.2c0.1,0,0.3,0,0.4,0.1c0.5,0.1,1,0.1,1.5,0.2c0.7,0.1,1.4,0.2,2,0.3s1.3,0.2,1.9,0.3
  		c0.7,0.1,1.3,0.2,2,0.4c0.6,0.1,1.3,0.2,1.9,0.3c0.7,0.1,1.3,0.3,2,0.4c0.6,0.1,1.2,0.3,1.9,0.4c0.7,0.1,1.3,0.3,2,0.4
  		c0.6,0.1,1.2,0.3,1.9,0.4c0.7,0.2,1.3,0.3,2,0.5c0.6,0.2,1.2,0.3,1.8,0.5c0.7,0.2,1.3,0.4,2,0.5c0.6,0.2,1.2,0.3,1.8,0.5
  		c0.7,0.2,1.3,0.4,1.9,0.6c0.6,0.2,1.2,0.4,1.8,0.6c0.6,0.2,1.3,0.4,1.9,0.6c0.6,0.2,1.2,0.4,1.8,0.6c0.6,0.2,1.3,0.5,1.9,0.7
  		s1.2,0.4,1.8,0.7c0.6,0.2,1.3,0.5,1.9,0.7s1.2,0.5,1.8,0.7c0.6,0.2,1.2,0.5,1.9,0.8c0.6,0.2,1.2,0.5,1.7,0.8
  		c0.6,0.3,1.2,0.5,1.9,0.8c0.6,0.3,1.2,0.5,1.7,0.8c0.6,0.3,1.2,0.6,1.8,0.9c0.6,0.3,1.1,0.5,1.7,0.8s1.2,0.6,1.8,0.9
  		c0.6,0.3,1.1,0.6,1.7,0.9c0.6,0.3,1.2,0.7,1.8,1c0.6,0.3,1.1,0.6,1.6,0.9c0.6,0.3,1.2,0.7,1.8,1c0.5,0.3,1.1,0.6,1.6,0.9
  		c0.6,0.4,1.2,0.7,1.8,1.1c0.5,0.3,1,0.6,1.6,1s1.2,0.8,1.8,1.1c0.5,0.3,1,0.7,1.6,1c0.6,0.4,1.2,0.8,1.8,1.2c0.5,0.3,1,0.7,1.5,1
  		c0.6,0.4,1.2,0.8,1.8,1.3c0.5,0.3,1,0.7,1.5,1c0.6,0.4,1.2,0.9,1.8,1.3c0.5,0.4,0.9,0.7,1.4,1.1c0.6,0.5,1.2,0.9,1.8,1.4
  		c0.5,0.4,0.9,0.7,1.4,1.1c0.6,0.5,1.2,1,1.8,1.5c0.4,0.4,0.8,0.7,1.3,1.1c0.6,0.5,1.2,1.1,1.9,1.7c0.4,0.3,0.8,0.7,1.1,1
  		c0.7,0.6,1.4,1.3,2.1,1.9c0.3,0.3,0.6,0.5,0.9,0.8c1,0.9,1.9,1.9,2.9,2.8c15.1,15.1,26.8,32.7,34.8,51.9
  		c7.9,19.2,12.1,39.9,12.1,61.2c-0.4,43.3-17,83.4-47.3,113.6c-18,18-39.6,31.2-63.1,38.9v74.5c104.1-22.9,182-115.6,182-226.4
  		C1312,822,1252.1,738.7,1167.2,704.3z"/>
  </g>
  <g id="Rain">
  	<path d="M1022,1082L1022,1082c-19.9,0-36-16.1-36-36v-72c0-19.9,16.1-36,36-36l0,0c19.9,0,36,16.1,36,36v72
  		C1058,1065.9,1041.9,1082,1022,1082z"/>
  	<path d="M878,1154L878,1154c-19.9,0-36-16.1-36-36V974c0-19.9,16.1-36,36-36l0,0c19.9,0,36,16.1,36,36v144
  		C914,1137.9,897.9,1154,878,1154z"/>
  </g>
  <path id="Flash" d="M768,1107.8c0,0.3,0,0.6,0,0.9c-0.2,8.8-3.7,17.6-10.5,24.3l-3.5,3.5l-205,205c-13.9,14-36.6,14-50.5,0
  	c-14-14-14-36.6,0-50.5l147-147H516c-0.3,0-0.7,0-1,0c-19.1-0.5-34.5-15.9-35-35c0-0.6,0-1.2,0-1.7c0-0.3,0-0.6,0-0.9
  	c0.4-8.6,3.9-17.1,10.5-23.6l2.5-2.5l0.1-0.1l205.8-205.8c14-14,36.7-14,50.7,0c7,7,10.5,16.2,10.5,25.3s-3.5,18.3-10.5,25.3
  	l-146.9,147H732c0.3,0,0.6,0,0.9,0c19.2,0.5,34.6,15.9,35.1,35.1C768,1107.3,768,1107.6,768,1107.8z"/>
</svg>